<?xml version="1.0" encoding="iso-8859-1"?>
<!-- Generator: Adobe Illustrator 19.0.0, SVG Export Plug-In . SVG Version: 6.00 Build 0)  -->
<svg xmlns="http://www.w3.org/2000/svg" height="30px" width="130px">
  <svg viewBox="0 0 600 600" fill="#000" x="33%" y="5%" height="35%" width="35%">
    <g>
      <rect x="22.912" y="425.374" width="556.088" height="4.758"/>
      <rect x="22.912" y="252.397" width="556.088" height="4.758"/>
      <rect x="124.133" y="180" width="5.663" height="327.695"/>
      <rect x="480.452" y="180" width="5.663" height="327.695"/>
      <rect x="294.499" y="180" width="5.663" height="327.695"/>
    </g>
    <g>
      <path d="M372.216-0.492c-2.668,0.016-5.336,0.062-8.004,0.12C267.512,472.665,316.397,558,316.397,558l6.88-6
        C286.339,450.045,344.214,136.038,372.216-0.492z"/>
    </g>
    <g>
      <path d="M253.209,473.592c0,0,18.041,38.908,4.541,81.658c0,0-3.75,5.667,1.75,17c0,0,2.875,1.75-0.875,8.5
        c0,0-0.625,19.25,11.625,12.25c0,0,11-9.25,13.75-9c0,0,25.977-15.004,16.956-29.639c-2.734-4.436-5.206-12.611-20.706,2.389
        c0,0,28.125-45.625,19.75-66.625c0,0,10.979-17.217,12.438-24.875c0,0,7.945-34.868,28.063-46.25c3.15-1.782,20.5-8.438,20.5-8.438
        l0.415-3.994l13.46-3.568l2.125-4.125c0,0,27.5-37.75,33.25-39c0,0,20.208-10.875,22.333-5.375c0,0,10.875-4.125,3.75-14
        s-24.75,2.083-24.75,2.083l-7.917,7.25l-35.958,29.509c0,0-7.097,5.79-10.25,5c-16.667-4.176-20-14-20-14l14.27-0.873
        c0,0,3.355-9.127,14.006-12.469c0,0,1.849-9.534,5.224-15.659c0,0,7.75-0.5,8,1s-0.375-35.813-35.625-32.75
        c-6.974,0.606-14.907,10.586-17.875,15.75c-4.409,7.671-8.75,19.625-5.25,35c0,0-16.308,9.569-33.459-8.759
        c-8.761-9.363-0.083-16-0.083-16l45.958-37.333c0,0,5.986-18.363-4.764-19.488S309,297.25,309,297.25s-0.5,10.5-4.25,11.25
        s-23.25,11-37.25,21.5c-12.442,9.332-9.085,14.938-6.5,19.333c1.705,2.899,5.414,11.057,5.414,11.057l-1.96,4.017
        c0,0,13.918,9.553,5.796,26.967c-3.692,7.917-16.25,16.875-29.033,31.495c0,0-24.018-33.512-47.55-45.037
        c-3.909-1.914-16.542,4.333-17.667,5.833s-6.708,49.167-2.333,58.667c0,0-10.167-14.774-17.917-12.929
        c-5.25,1.25-9.989,18.274-6.083,19.095c10.705,2.25,23.416,24.879,29.09,21.861c9.792-5.208,9.106-8.384,9.106-8.384l3.471-5.644
        l5.571-27.88C196.905,428.453,206.459,465.967,253.209,473.592z"/>
    </g>
    <g>
      <path d="M423.14,380.5c-0.307-0.833,21.694-76.333,21.694-76.333l-6.344-2L417,382L423.14,380.5z"/>
    </g>
  </svg>
</svg>
