<?xml version="1.0" encoding="iso-8859-1"?>
<!-- Generator: Adobe Illustrator 19.0.0, SVG Export Plug-In . SVG Version: 6.00 Build 0)  -->
<svg xmlns="http://www.w3.org/2000/svg">
  <svg id="cleaning" viewBox="0 0 300 300">
    <g>
      <path d="M265.79,0H112.151c-4.028,0-7.63,1.853-10.002,4.75c2.605,2.296,4.846,4.99,6.657,7.972h156.985
				c0.112,0,0.204,0.092,0.204,0.205v140.806c0,0.112-0.092,0.205-0.204,0.205H120.192v12.722H265.79
				c7.127,0,12.927-5.799,12.927-12.927V12.927C278.717,5.799,272.918,0,265.79,0z"/>
      <path d="M133.684,138.25l36.08-27.141c5.077-3.819,6.131-10.994,2.409-16.114c1.851-7.6,6.62-27.18,8.396-34.476l27.451,6.685
				c1.223,0.298,2.456-0.452,2.754-1.675l2.985-12.258c0.298-1.223-0.452-2.456-1.675-2.754l-71.59-17.435
				c-1.223-0.298-2.456,0.452-2.754,1.675l-2.985,12.258c-0.298,1.223,0.452,2.456,1.675,2.754l27.451,6.685
				c-0.383,1.573-6.569,26.971-8.943,36.72l-16.737,12.591l-0.081-16.188c-0.076-15.081-12.404-27.365-27.503-27.365
				c-7.162,0-56.366,0-62.393,0C26.128,62.224,20.78,77.994,20.722,89.577l-0.429,85.382c-0.033,6.419,5.145,11.648,11.563,11.681
				c0.02,0,0.04,0,0.06,0c6.348,0,11.588-5.141,11.621-11.564l0.429-85.383c0.007-1.238,1.013-2.237,2.25-2.233
				c1.237,0.003,2.238,1.008,2.238,2.244c0.001,27.769,0.005,182.647,0.005,195.359c0,7.703,6.243,13.946,13.946,13.946
				c7.691,0,13.946-6.228,13.946-13.946V173.588h6.022v111.475c0,7.68,6.218,13.946,13.946,13.946
				c7.688,0,13.946-6.227,13.946-13.946c0-182.046-0.247-82.185-0.253-195.357c0-1.341,1.085-2.428,2.425-2.432
				c1.341-0.004,2.432,1.078,2.439,2.419c0,0.001,0,0.001,0,0.001l0.198,39.327C115.124,138.594,126.093,143.961,133.684,138.25z"/>
      <polygon points="231.512,23.778 229.738,31.243 222.272,33.017 229.738,34.791 231.512,42.256 233.286,34.791 240.751,33.017
				233.286,31.243 			"/>
      <polygon points="245.506,58.685 246.791,53.276 252.201,51.99 246.791,50.705 245.506,45.295 244.221,50.705 238.811,51.99
				244.221,53.276 			"/>
      <polygon points="235.328,69.128 233.799,75.565 227.361,77.095 233.799,78.624 235.328,85.062 236.858,78.624 243.296,77.095
				236.858,75.565 			"/>
      <path d="M79.52,54.535c13.22,0,24.087-10.717,24.087-24.087c0-13.303-10.784-24.087-24.087-24.087
				c-13.303,0-24.087,10.784-24.087,24.087C55.433,43.857,66.344,54.535,79.52,54.535z"/>
    </g>
  </svg>
  <svg id="mail" viewBox="0 0 900 900">
    <path
      d="M0 192v640h896V192H0zM768 256L448 520 128 256H768zM64 320l252.031 191.625L64 704V320zM128 768l254-206.25L448 612l65.875-50.125L768 768H128zM832 704L579.625 511.938 832 320V704z"/>
  </svg>
  <svg id="phone" viewBox="0 0 1000 1000">
    <path
      d="M206.1,11.1c2.3-0.1,4.6-0.1,6.9-0.4c11.9-1,22.1,1.9,28.7,12.8c14.8,24,29.7,48,43.8,72.6c16.3,28.4,31.3,57.6,47.3,86.3c4.1,7.7,9.8,14.7,14.6,22.1c4.4,7,8.6,14.2,12.7,21.2c8.4,15.9,8,31.9-4.5,44.6c-17.8,18.2-37.4,35.1-56.3,52.4c-15.8,14.5-32.2,28.4-47.6,43.2c-12,11.6-15.1,26.1-7,41.4c12.5,23.4,24.9,46.8,38.6,69.7C334.1,561.7,399,633.7,481,689.2c31.6,21.5,64.5,41.2,97.7,60c31.3,17.7,43.5,14.7,67.8-12.4c22.6-25.1,44.4-50.6,66.9-75.9c5.4-6.1,11.9-11.5,18.2-16.7c12.8-10.8,26.8-12,41.5-4.6c4.1,2,8.5,3.8,12.1,6.4c39,27.9,82.6,47.6,123.8,71.3c22.1,12.7,43.6,26.3,65.3,39.3c11.7,6.9,16.4,17,15.6,30.9c-2.2,39.1-8.7,77.5-31.4,110.5c-9.5,13.7-23,25.7-36.6,35.4c-37.7,26.4-79.8,42.7-124.6,52.7c-40.7,9.1-81.3,5.8-120.3-6.4c-75.3-23.2-149.5-49.8-217.8-90.1c-62-36.7-118.4-81-170.6-130.5c-66.1-62.9-125.1-131.5-172.8-209.6c-31.1-50.7-53.3-105.3-73.4-161c-12.2-33.6-24.2-66.9-29.6-102.5c-6.2-40.3-1.9-79.1,11-117.3c11.6-34.5,26.1-67.5,48-97C89,48.8,110.5,32,138.3,24.5c22.3-5.9,44.8-10.6,67.2-15.8C205.8,9.5,205.9,10.4,206.1,11.1z"/>
  </svg>
  <svg id="logo" viewBox="0 0 600 600">
    <g>
      <rect x="22.912" y="180" style="fill:none;stroke:#ffffff;stroke-width:11;stroke-miterlimit:10;" width="556.088" height="327.695"/>
      <rect x="22.912" y="425.374" width="556.088" height="4.758"/>
      <rect x="22.912" y="252.397" width="556.088" height="4.758"/>
      <rect x="124.133" y="180" width="5.663" height="327.695"/>
      <rect x="480.452" y="180" width="5.663" height="327.695"/>
      <rect x="294.499" y="180" width="5.663" height="327.695"/>
    </g>
    <g>
      <line style="stroke:#ffffff;stroke-width:13;stroke-miterlimit:10;" x1="125.175" y1="448.5" x2="476.36" y2="524"/>
    </g>
    <g>
      <path d="M372.216-0.492c-2.668,0.016-5.336,0.062-8.004,0.12C267.512,472.665,316.397,558,316.397,558l6.88-6
        C286.339,450.045,344.214,136.038,372.216-0.492z"/>
    </g>
    <g>
      <path d="M253.209,473.592c0,0,18.041,38.908,4.541,81.658c0,0-3.75,5.667,1.75,17c0,0,2.875,1.75-0.875,8.5
        c0,0-0.625,19.25,11.625,12.25c0,0,11-9.25,13.75-9c0,0,25.977-15.004,16.956-29.639c-2.734-4.436-5.206-12.611-20.706,2.389
        c0,0,28.125-45.625,19.75-66.625c0,0,10.979-17.217,12.438-24.875c0,0,7.945-34.868,28.063-46.25c3.15-1.782,20.5-8.438,20.5-8.438
        l0.415-3.994l13.46-3.568l2.125-4.125c0,0,27.5-37.75,33.25-39c0,0,20.208-10.875,22.333-5.375c0,0,10.875-4.125,3.75-14
        s-24.75,2.083-24.75,2.083l-7.917,7.25l-35.958,29.509c0,0-7.097,5.79-10.25,5c-16.667-4.176-20-14-20-14l14.27-0.873
        c0,0,3.355-9.127,14.006-12.469c0,0,1.849-9.534,5.224-15.659c0,0,7.75-0.5,8,1s-0.375-35.813-35.625-32.75
        c-6.974,0.606-14.907,10.586-17.875,15.75c-4.409,7.671-8.75,19.625-5.25,35c0,0-16.308,9.569-33.459-8.759
        c-8.761-9.363-0.083-16-0.083-16l45.958-37.333c0,0,5.986-18.363-4.764-19.488S309,297.25,309,297.25s-0.5,10.5-4.25,11.25
        s-23.25,11-37.25,21.5c-12.442,9.332-9.085,14.938-6.5,19.333c1.705,2.899,5.414,11.057,5.414,11.057l-1.96,4.017
        c0,0,13.918,9.553,5.796,26.967c-3.692,7.917-16.25,16.875-29.033,31.495c0,0-24.018-33.512-47.55-45.037
        c-3.909-1.914-16.542,4.333-17.667,5.833s-6.708,49.167-2.333,58.667c0,0-10.167-14.774-17.917-12.929
        c-5.25,1.25-9.989,18.274-6.083,19.095c10.705,2.25,23.416,24.879,29.09,21.861c9.792-5.208,9.106-8.384,9.106-8.384l3.471-5.644
        l5.571-27.88C196.905,428.453,206.459,465.967,253.209,473.592z"/>
    </g>
    <g>
      <path d="M423.14,380.5c-0.307-0.833,21.694-76.333,21.694-76.333l-6.344-2L417,382L423.14,380.5z"/>
    </g>
  </svg>
  <svg id="emptyLogo" viewBox="0 0 600 600">
<!--    <g>
      <rect x="22.912" y="180" style="fill:none;stroke:#ffffff;stroke-width:11;stroke-miterlimit:10;" width="556.088" height="327.695"/>
      <rect x="22.912" y="425.374" width="556.088" height="4.758"/>
      <rect x="22.912" y="252.397" width="556.088" height="4.758"/>
      <rect x="124.133" y="180" width="5.663" height="327.695"/>
      <rect x="480.452" y="180" width="5.663" height="327.695"/>
      <rect x="294.499" y="180" width="5.663" height="327.695"/>
    </g>
    <g>
      <line style="stroke:#ffffff;stroke-width:13;stroke-miterlimit:10;" x1="125.175" y1="448.5" x2="476.36" y2="524"/>
    </g>
    <g>
      <path d="M372.216-0.492c-2.668,0.016-5.336,0.062-8.004,0.12C267.512,472.665,316.397,558,316.397,558l6.88-6
        C286.339,450.045,344.214,136.038,372.216-0.492z"/>
    </g>-->
    <g>
      <path d="M253.209,473.592c0,0,18.041,38.908,4.541,81.658c0,0-3.75,5.667,1.75,17c0,0,2.875,1.75-0.875,8.5
        c0,0-0.625,19.25,11.625,12.25c0,0,11-9.25,13.75-9c0,0,25.977-15.004,16.956-29.639c-2.734-4.436-5.206-12.611-20.706,2.389
        c0,0,28.125-45.625,19.75-66.625c0,0,10.979-17.217,12.438-24.875c0,0,7.945-34.868,28.063-46.25c3.15-1.782,20.5-8.438,20.5-8.438
        l0.415-3.994l13.46-3.568l2.125-4.125c0,0,27.5-37.75,33.25-39c0,0,20.208-10.875,22.333-5.375c0,0,10.875-4.125,3.75-14
        s-24.75,2.083-24.75,2.083l-7.917,7.25l-35.958,29.509c0,0-7.097,5.79-10.25,5c-16.667-4.176-20-14-20-14l14.27-0.873
        c0,0,3.355-9.127,14.006-12.469c0,0,1.849-9.534,5.224-15.659c0,0,7.75-0.5,8,1s-0.375-35.813-35.625-32.75
        c-6.974,0.606-14.907,10.586-17.875,15.75c-4.409,7.671-8.75,19.625-5.25,35c0,0-16.308,9.569-33.459-8.759
        c-8.761-9.363-0.083-16-0.083-16l45.958-37.333c0,0,5.986-18.363-4.764-19.488S309,297.25,309,297.25s-0.5,10.5-4.25,11.25
        s-23.25,11-37.25,21.5c-12.442,9.332-9.085,14.938-6.5,19.333c1.705,2.899,5.414,11.057,5.414,11.057l-1.96,4.017
        c0,0,13.918,9.553,5.796,26.967c-3.692,7.917-16.25,16.875-29.033,31.495c0,0-24.018-33.512-47.55-45.037
        c-3.909-1.914-16.542,4.333-17.667,5.833s-6.708,49.167-2.333,58.667c0,0-10.167-14.774-17.917-12.929
        c-5.25,1.25-9.989,18.274-6.083,19.095c10.705,2.25,23.416,24.879,29.09,21.861c9.792-5.208,9.106-8.384,9.106-8.384l3.471-5.644
        l5.571-27.88C196.905,428.453,206.459,465.967,253.209,473.592z"/>
    </g>
    <g>
      <path d="M423.14,380.5c-0.307-0.833,21.694-76.333,21.694-76.333l-6.344-2L417,382L423.14,380.5z"/>
    </g>
  </svg>
  <svg id="arrowDown" viewBox="0 0 64 64">
    <g>
      <path d="m46.74,25.293l-14.474,14.475-14.485-14.487c-0.781-0.781-2.047-0.781-2.828,0-0.781,0.779-0.781,2.047 0,2.828l15.879,15.883c0.248,0.248 0.588,0.436 0.928,0.525 0.17,0.045 0.344,0.068 0.516,0.068 0.523,0 1.035-0.207 1.414-0.586l15.879-15.879c0.781-0.781 0.781-2.047 0-2.828s-2.048-0.78-2.829,0.001z" fill="#FFFFFF"/>
      <path d="M32,0C14.355,0,0,14.355,0,32s14.355,32,32,32s32-14.355,32-32S49.645,0,32,0z M32,60    C16.561,60,4,47.439,4,32S16.561,4,32,4s28,12.561,28,28S47.439,60,32,60z" fill="#FFFFFF"/>
    </g>
  </svg>
</svg>
